<?xml version="1.0" encoding="utf-8"?>
<!-- Generator: Adobe Illustrator 23.0.1, SVG Export Plug-In . SVG Version: 6.00 Build 0)  -->
<!DOCTYPE svg PUBLIC "-//W3C//DTD SVG 1.1//EN" "http://www.w3.org/Graphics/SVG/1.1/DTD/svg11.dtd" [
	<!ENTITY ns_flows "http://ns.adobe.com/Flows/1.0/">
	<!ENTITY ns_extend "http://ns.adobe.com/Extensibility/1.0/">
	<!ENTITY ns_ai "http://ns.adobe.com/AdobeIllustrator/10.0/">
	<!ENTITY ns_graphs "http://ns.adobe.com/Graphs/1.0/">
	<!ENTITY ns_vars "http://ns.adobe.com/Variables/1.0/">
	<!ENTITY ns_imrep "http://ns.adobe.com/ImageReplacement/1.0/">
	<!ENTITY ns_sfw "http://ns.adobe.com/SaveForWeb/1.0/">
	<!ENTITY ns_custom "http://ns.adobe.com/GenericCustomNamespace/1.0/">
	<!ENTITY ns_adobe_xpath "http://ns.adobe.com/XPath/1.0/">
]>
<svg version="1.1" xmlns:x="&ns_extend;" xmlns:i="&ns_ai;" xmlns:graph="&ns_graphs;"
	 xmlns="http://www.w3.org/2000/svg" xmlns:xlink="http://www.w3.org/1999/xlink" xmlns:a="http://ns.adobe.com/AdobeSVGViewerExtensions/3.0/"
	 x="0px" y="0px" viewBox="0 0 1500 430" enable-background="new 0 0 1500 430" xml:space="preserve">
<metadata>
	<sfw  xmlns="&ns_sfw;">
		<slices></slices>
		<sliceSourceBounds  bottomLeftOrigin="true" height="6857.822" width="3410" x="-1190" y="-1728"></sliceSourceBounds>
	</sfw>
</metadata>
<g id="FILL-BACKGROUND">
	<rect fill="#FFFFFF" width="1500" height="430"/>
</g>
<g id="N-DIMENSIONS">
	<g>
		<g id="POLYLINE_76_">
			
				<line fill="none" stroke="#E74C3C" stroke-width="2" stroke-linecap="round" stroke-linejoin="round" stroke-miterlimit="10" x1="829.751" y1="97.754" x2="520" y2="97.754"/>
		</g>
		<g id="LINE_14_">
			
				<line fill="none" stroke="#E74C3C" stroke-width="2" stroke-linecap="round" stroke-linejoin="round" stroke-miterlimit="10" x1="392.88" y1="97.754" x2="81.75" y2="97.754"/>
		</g>
		<g id="POLYLINE_75_">
			
				<polyline fill="none" stroke="#E74C3C" stroke-width="2" stroke-linecap="round" stroke-linejoin="round" stroke-miterlimit="10" points="
				88.379,104.382 81.75,97.754 88.379,91.126 			"/>
		</g>
		<g id="POLYLINE_73_">
			
				<polyline fill="none" stroke="#E74C3C" stroke-width="2" stroke-linecap="round" stroke-linejoin="round" stroke-miterlimit="10" points="
				823.124,91.126 829.751,97.754 823.124,104.382 			"/>
		</g>
		<g id="MTEXT_39_">
			<g>
				<g>
					<g>
						<path fill="#E74C3C" d="M407.098,104.967c-0.072-0.078-0.107-0.177-0.107-0.297V94.518l-3.024,2.322
							c-0.084,0.072-0.174,0.108-0.271,0.108c-0.107,0-0.209-0.061-0.305-0.181l-0.433-0.558c-0.06-0.084-0.09-0.168-0.09-0.252
							c0-0.132,0.06-0.24,0.18-0.324l3.906-3.023c0.132-0.084,0.288-0.126,0.468-0.126h0.846c0.12,0,0.219,0.039,0.297,0.116
							c0.078,0.078,0.117,0.178,0.117,0.298v11.771c0,0.12-0.039,0.219-0.117,0.297s-0.177,0.117-0.297,0.117h-0.882
							C407.266,105.084,407.17,105.045,407.098,104.967z"/>
						<path fill="#E74C3C" d="M414.748,104.967c-0.072-0.078-0.108-0.177-0.108-0.297V94.518l-3.024,2.322
							c-0.084,0.072-0.174,0.108-0.27,0.108c-0.107,0-0.21-0.061-0.306-0.181l-0.433-0.558c-0.06-0.084-0.09-0.168-0.09-0.252
							c0-0.132,0.061-0.24,0.18-0.324l3.906-3.023c0.133-0.084,0.289-0.126,0.469-0.126h0.846c0.119,0,0.219,0.039,0.297,0.116
							c0.078,0.078,0.117,0.178,0.117,0.298v11.771c0,0.12-0.039,0.219-0.117,0.297s-0.178,0.117-0.297,0.117h-0.883
							C414.916,105.084,414.82,105.045,414.748,104.967z"/>
						<path fill="#E74C3C" d="M424.656,104.967c-0.078-0.078-0.117-0.177-0.117-0.297v-2.628h-5.85c-0.12,0-0.219-0.039-0.297-0.117
							s-0.117-0.177-0.117-0.297v-0.666c0-0.168,0.066-0.348,0.197-0.54l5.418-7.632c0.061-0.096,0.15-0.171,0.271-0.225
							c0.12-0.055,0.252-0.081,0.396-0.081h1.225c0.132,0,0.234,0.035,0.307,0.107c0.071,0.072,0.107,0.174,0.107,0.307v7.632h1.639
							c0.119,0,0.219,0.039,0.297,0.117c0.077,0.078,0.116,0.177,0.116,0.297v0.684c0,0.12-0.039,0.219-0.116,0.297
							c-0.078,0.078-0.178,0.117-0.297,0.117h-1.639v2.628c0,0.12-0.039,0.219-0.117,0.297s-0.178,0.117-0.297,0.117h-0.828
							C424.833,105.084,424.734,105.045,424.656,104.967z M420.147,100.566h4.409v-6.265L420.147,100.566z"/>
						<path fill="#E74C3C" d="M429.93,95.616c-0.053-0.072-0.068-0.162-0.045-0.271l0.396-2.52c0.048-0.348,0.216-0.522,0.504-0.522
							h1.152c0.084,0,0.152,0.03,0.207,0.09c0.054,0.061,0.08,0.133,0.08,0.217c0,0.12-0.018,0.216-0.053,0.288l-0.937,2.43
							c-0.06,0.132-0.126,0.231-0.198,0.297c-0.072,0.066-0.18,0.099-0.324,0.099h-0.558
							C430.059,95.724,429.984,95.688,429.93,95.616z M432.756,95.616c-0.054-0.072-0.068-0.162-0.045-0.271l0.396-2.52
							c0.048-0.348,0.216-0.522,0.504-0.522h1.152c0.084,0,0.152,0.03,0.207,0.09c0.054,0.061,0.08,0.133,0.08,0.217
							c0,0.12-0.018,0.216-0.054,0.288l-0.936,2.43c-0.061,0.132-0.126,0.231-0.198,0.297c-0.072,0.066-0.18,0.099-0.324,0.099
							h-0.558C432.885,95.724,432.811,95.688,432.756,95.616z"/>
						<path fill="#E74C3C" d="M441.639,108.711c-0.071-0.078-0.107-0.177-0.107-0.297V89.37c0-0.12,0.036-0.219,0.107-0.297
							c0.072-0.078,0.168-0.117,0.289-0.117h0.666c0.119,0,0.219,0.039,0.297,0.117s0.117,0.177,0.117,0.297v19.044
							c0,0.12-0.039,0.219-0.117,0.297s-0.178,0.117-0.297,0.117h-0.666C441.807,108.828,441.711,108.789,441.639,108.711z"/>
						<path fill="#E74C3C" d="M449.766,104.967c-0.078-0.078-0.117-0.177-0.117-0.297v-0.54c0-0.275,0.15-0.54,0.45-0.792
							l3.924-3.906c0.888-0.756,1.5-1.374,1.836-1.854s0.505-0.99,0.505-1.53c0-0.708-0.199-1.263-0.595-1.665
							c-0.396-0.401-0.972-0.603-1.728-0.603c-0.721,0-1.291,0.21-1.711,0.63s-0.678,0.984-0.773,1.691
							c-0.024,0.133-0.084,0.234-0.18,0.307c-0.097,0.072-0.192,0.107-0.289,0.107h-0.863c-0.107,0-0.198-0.035-0.27-0.107
							c-0.072-0.072-0.108-0.156-0.108-0.252c0.024-0.636,0.194-1.251,0.513-1.846c0.318-0.594,0.789-1.079,1.413-1.458
							c0.624-0.378,1.38-0.566,2.269-0.566c1.344,0,2.354,0.351,3.033,1.053c0.678,0.702,1.017,1.593,1.017,2.673
							c0,0.756-0.183,1.438-0.55,2.043c-0.365,0.606-0.938,1.245-1.719,1.917l-3.546,3.601h5.671c0.131,0,0.233,0.036,0.305,0.107
							c0.072,0.072,0.109,0.175,0.109,0.307v0.684c0,0.12-0.04,0.219-0.117,0.297c-0.078,0.078-0.178,0.117-0.297,0.117h-7.885
							C449.942,105.084,449.844,105.045,449.766,104.967z"/>
						<path fill="#E74C3C" d="M462.51,104.967c-0.066-0.078-0.1-0.171-0.1-0.279c0-0.083,0.023-0.161,0.072-0.233l2.771-3.853
							c-0.287,0.072-0.623,0.108-1.008,0.108c-0.863-0.012-1.619-0.213-2.268-0.603c-0.648-0.391-1.143-0.9-1.485-1.53
							c-0.342-0.63-0.513-1.305-0.513-2.025c0-0.72,0.171-1.403,0.513-2.052c0.343-0.648,0.853-1.176,1.53-1.584
							s1.496-0.612,2.457-0.612c0.96,0,1.781,0.198,2.466,0.595c0.685,0.396,1.2,0.915,1.548,1.557s0.521,1.329,0.521,2.061
							c0,0.66-0.116,1.242-0.35,1.746c-0.234,0.504-0.544,1.026-0.928,1.566l-3.492,4.896c-0.084,0.108-0.165,0.195-0.242,0.262
							c-0.078,0.065-0.189,0.099-0.334,0.099h-0.899C462.662,105.084,462.575,105.045,462.51,104.967z M465.902,98.946
							c0.432-0.229,0.773-0.549,1.025-0.963s0.379-0.892,0.379-1.432c0-0.552-0.127-1.037-0.379-1.458
							c-0.252-0.42-0.594-0.744-1.025-0.972s-0.906-0.342-1.422-0.342c-0.504,0-0.969,0.114-1.395,0.342
							c-0.427,0.228-0.766,0.552-1.018,0.972c-0.252,0.421-0.378,0.906-0.378,1.458c0,0.54,0.126,1.018,0.378,1.432
							s0.588,0.734,1.008,0.963c0.42,0.228,0.889,0.342,1.404,0.342S465.471,99.174,465.902,98.946z"/>
						<path fill="#E74C3C" d="M472.211,103.905c-0.713-0.906-1.095-2.091-1.143-3.556l-0.018-1.548l0.018-1.602
							c0.036-1.452,0.417-2.631,1.143-3.537c0.727-0.906,1.857-1.359,3.394-1.359c1.548,0,2.685,0.453,3.411,1.359
							c0.726,0.906,1.107,2.085,1.143,3.537c0.012,0.336,0.018,0.87,0.018,1.602c0,0.708-0.006,1.225-0.018,1.548
							c-0.048,1.465-0.429,2.649-1.143,3.556c-0.715,0.906-1.852,1.358-3.411,1.358
							C474.057,105.264,472.926,104.812,472.211,103.905z M477.692,102.852c0.468-0.611,0.714-1.476,0.738-2.592
							c0.012-0.348,0.019-0.846,0.019-1.494c0-0.659-0.007-1.151-0.019-1.476c-0.024-1.104-0.273-1.965-0.747-2.583
							c-0.475-0.618-1.168-0.927-2.079-0.927c-0.912,0-1.603,0.309-2.069,0.927c-0.469,0.618-0.715,1.479-0.738,2.583l-0.019,1.476
							l0.019,1.494c0.023,1.116,0.27,1.98,0.738,2.592c0.467,0.612,1.157,0.918,2.069,0.918
							C476.528,103.77,477.225,103.464,477.692,102.852z"/>
						<path fill="#E74C3C" d="M487.826,104.175c-0.721-0.726-1.098-1.743-1.135-3.051l-0.018-0.72l0.018-0.721
							c0.037-1.308,0.414-2.324,1.135-3.051c0.719-0.726,1.721-1.089,3.006-1.089c0.863,0,1.592,0.153,2.188,0.459
							c0.594,0.306,1.037,0.688,1.332,1.143c0.293,0.457,0.451,0.912,0.477,1.368c0.012,0.108-0.027,0.204-0.117,0.288
							s-0.189,0.126-0.297,0.126h-0.793c-0.119,0-0.209-0.026-0.27-0.081c-0.061-0.054-0.119-0.152-0.18-0.297
							c-0.217-0.588-0.514-1.005-0.891-1.251c-0.379-0.246-0.855-0.369-1.432-0.369c-0.756,0-1.355,0.234-1.801,0.702
							c-0.443,0.468-0.684,1.183-0.719,2.143l-0.018,0.63l0.018,0.63c0.035,0.96,0.275,1.674,0.719,2.142
							c0.445,0.468,1.045,0.702,1.801,0.702c0.588,0,1.068-0.123,1.439-0.369c0.373-0.246,0.666-0.663,0.883-1.251
							c0.061-0.144,0.119-0.243,0.18-0.297s0.15-0.081,0.27-0.081h0.793c0.107,0,0.207,0.042,0.297,0.126s0.129,0.18,0.117,0.288
							c-0.025,0.444-0.184,0.895-0.477,1.35c-0.295,0.457-0.738,0.841-1.332,1.152c-0.596,0.312-1.324,0.468-2.188,0.468
							C489.547,105.264,488.545,104.901,487.826,104.175z"/>
						<path fill="#E74C3C" d="M497.105,104.967c-0.078-0.078-0.117-0.177-0.117-0.297v-8.532c0-0.119,0.039-0.219,0.117-0.297
							s0.176-0.117,0.297-0.117h0.756c0.119,0,0.217,0.039,0.287,0.117c0.072,0.078,0.109,0.178,0.109,0.297v0.612
							c0.648-0.804,1.523-1.206,2.627-1.206c1.32,0,2.256,0.552,2.809,1.656c0.287-0.504,0.699-0.906,1.232-1.206
							c0.535-0.3,1.131-0.45,1.791-0.45c0.984,0,1.789,0.336,2.412,1.008c0.625,0.673,0.936,1.645,0.936,2.916v5.202
							c0,0.12-0.039,0.219-0.115,0.297c-0.078,0.078-0.178,0.117-0.299,0.117h-0.773c-0.119,0-0.219-0.039-0.297-0.117
							s-0.117-0.177-0.117-0.297v-5.04c0-0.96-0.197-1.646-0.594-2.061s-0.918-0.621-1.566-0.621c-0.576,0-1.07,0.213-1.484,0.639
							s-0.621,1.107-0.621,2.043v5.04c0,0.12-0.039,0.219-0.117,0.297s-0.178,0.117-0.297,0.117h-0.791
							c-0.121,0-0.221-0.039-0.299-0.117s-0.115-0.177-0.115-0.297v-5.04c0-0.947-0.207-1.632-0.621-2.052s-0.928-0.63-1.539-0.63
							c-0.576,0-1.072,0.21-1.486,0.63s-0.621,1.098-0.621,2.034v5.058c0,0.12-0.039,0.219-0.117,0.297s-0.176,0.117-0.297,0.117
							h-0.791C497.281,105.084,497.184,105.045,497.105,104.967z"/>
					</g>
				</g>
			</g>
		</g>
	</g>
	<g>
		<g id="POLYLINE_85_">
			
				<line fill="none" stroke="#E74C3C" stroke-width="2" stroke-linecap="round" stroke-linejoin="round" stroke-miterlimit="10" x1="1389.751" y1="97.754" x2="1240" y2="97.754"/>
		</g>
		<g id="LINE_15_">
			
				<line fill="none" stroke="#E74C3C" stroke-width="2" stroke-linecap="round" stroke-linejoin="round" stroke-miterlimit="10" x1="1118" y1="97.754" x2="967.75" y2="97.754"/>
		</g>
		<g id="POLYLINE_78_">
			
				<polyline fill="none" stroke="#E74C3C" stroke-width="2" stroke-linecap="round" stroke-linejoin="round" stroke-miterlimit="10" points="
				974.379,104.382 967.75,97.754 974.379,91.126 			"/>
		</g>
		<g id="POLYLINE_77_">
			
				<polyline fill="none" stroke="#E74C3C" stroke-width="2" stroke-linecap="round" stroke-linejoin="round" stroke-miterlimit="10" points="
				1383.124,91.126 1389.751,97.754 1383.124,104.382 			"/>
		</g>
		<g id="MTEXT_42_">
			<g>
				<g>
					<g>
						<path fill="#E74C3C" d="M1131.078,104.679c-0.703-0.39-1.236-0.915-1.603-1.575c-0.366-0.659-0.55-1.379-0.55-2.159
							c0-1.032,0.414-2.136,1.242-3.312l3.438-4.788c0.012-0.012,0.045-0.054,0.099-0.126c0.055-0.072,0.123-0.129,0.207-0.171
							s0.18-0.062,0.288-0.062h0.882c0.108,0,0.195,0.039,0.262,0.116c0.065,0.078,0.099,0.172,0.099,0.279
							c0,0.061-0.03,0.139-0.09,0.234l-2.628,3.672c0.312-0.072,0.66-0.108,1.044-0.108c0.876,0,1.647,0.195,2.313,0.585
							c0.666,0.391,1.182,0.906,1.547,1.548c0.366,0.643,0.549,1.348,0.549,2.115c0,0.769-0.183,1.485-0.549,2.151
							c-0.365,0.666-0.896,1.197-1.592,1.593c-0.697,0.396-1.52,0.594-2.467,0.594
							C1132.61,105.264,1131.779,105.069,1131.078,104.679z M1135.01,103.446c0.444-0.216,0.799-0.537,1.062-0.963
							s0.396-0.939,0.396-1.539c0-0.588-0.135-1.096-0.405-1.521s-0.628-0.75-1.071-0.972s-0.924-0.333-1.439-0.333
							c-0.517,0-0.996,0.111-1.44,0.333s-0.798,0.546-1.062,0.972c-0.265,0.426-0.396,0.934-0.396,1.521
							c0,0.6,0.132,1.113,0.396,1.539c0.264,0.426,0.617,0.747,1.062,0.963s0.924,0.323,1.44,0.323
							C1134.08,103.77,1134.566,103.662,1135.01,103.446z"/>
						<path fill="#E74C3C" d="M1145.783,104.967c-0.078-0.078-0.117-0.177-0.117-0.297v-2.628h-5.85
							c-0.12,0-0.219-0.039-0.297-0.117s-0.117-0.177-0.117-0.297v-0.666c0-0.168,0.066-0.348,0.197-0.54l5.418-7.632
							c0.061-0.096,0.15-0.171,0.271-0.225c0.12-0.055,0.252-0.081,0.396-0.081h1.225c0.132,0,0.234,0.035,0.307,0.107
							c0.071,0.072,0.107,0.174,0.107,0.307v7.632h1.639c0.119,0,0.219,0.039,0.297,0.117c0.077,0.078,0.116,0.177,0.116,0.297
							v0.684c0,0.12-0.039,0.219-0.116,0.297c-0.078,0.078-0.178,0.117-0.297,0.117h-1.639v2.628c0,0.12-0.039,0.219-0.117,0.297
							s-0.178,0.117-0.297,0.117h-0.828C1145.96,105.084,1145.861,105.045,1145.783,104.967z M1141.274,100.566h4.409v-6.265
							L1141.274,100.566z"/>
						<path fill="#E74C3C" d="M1151.057,95.616c-0.053-0.072-0.068-0.162-0.045-0.271l0.396-2.52
							c0.048-0.348,0.216-0.522,0.504-0.522h1.152c0.084,0,0.152,0.03,0.207,0.09c0.054,0.061,0.08,0.133,0.08,0.217
							c0,0.12-0.018,0.216-0.053,0.288l-0.937,2.43c-0.06,0.132-0.126,0.231-0.198,0.297c-0.072,0.066-0.18,0.099-0.324,0.099
							h-0.558C1151.186,95.724,1151.111,95.688,1151.057,95.616z M1153.883,95.616c-0.054-0.072-0.068-0.162-0.045-0.271l0.396-2.52
							c0.048-0.348,0.216-0.522,0.504-0.522h1.152c0.084,0,0.152,0.03,0.207,0.09c0.054,0.061,0.08,0.133,0.08,0.217
							c0,0.12-0.018,0.216-0.054,0.288l-0.936,2.43c-0.061,0.132-0.126,0.231-0.198,0.297c-0.072,0.066-0.18,0.099-0.324,0.099
							h-0.558C1154.012,95.724,1153.938,95.688,1153.883,95.616z"/>
						<path fill="#E74C3C" d="M1162.766,108.711c-0.072-0.078-0.107-0.177-0.107-0.297V89.37c0-0.12,0.035-0.219,0.107-0.297
							s0.168-0.117,0.288-0.117h0.666c0.12,0,0.219,0.039,0.297,0.117s0.117,0.177,0.117,0.297v19.044
							c0,0.12-0.039,0.219-0.117,0.297s-0.177,0.117-0.297,0.117h-0.666C1162.934,108.828,1162.838,108.789,1162.766,108.711z"/>
						<path fill="#E74C3C" d="M1174.573,104.967c-0.072-0.078-0.108-0.177-0.108-0.297V94.518l-3.023,2.322
							c-0.084,0.072-0.174,0.108-0.271,0.108c-0.108,0-0.21-0.061-0.306-0.181l-0.432-0.558c-0.061-0.084-0.09-0.168-0.09-0.252
							c0-0.132,0.059-0.24,0.18-0.324l3.906-3.023c0.131-0.084,0.287-0.126,0.467-0.126h0.847c0.12,0,0.219,0.039,0.297,0.116
							c0.078,0.078,0.117,0.178,0.117,0.298v11.771c0,0.12-0.039,0.219-0.117,0.297s-0.177,0.117-0.297,0.117h-0.882
							C1174.741,105.084,1174.645,105.045,1174.573,104.967z"/>
						<path fill="#E74C3C" d="M1180.576,104.679c-0.702-0.39-1.236-0.915-1.602-1.575c-0.367-0.659-0.55-1.379-0.55-2.159
							c0-1.032,0.414-2.136,1.242-3.312l3.438-4.788c0.012-0.012,0.045-0.054,0.099-0.126s0.122-0.129,0.207-0.171
							c0.083-0.042,0.18-0.062,0.288-0.062h0.882c0.108,0,0.194,0.039,0.261,0.116c0.066,0.078,0.1,0.172,0.1,0.279
							c0,0.061-0.031,0.139-0.09,0.234l-2.629,3.672c0.312-0.072,0.66-0.108,1.045-0.108c0.875,0,1.646,0.195,2.312,0.585
							c0.666,0.391,1.182,0.906,1.548,1.548c0.366,0.643,0.549,1.348,0.549,2.115c0,0.769-0.183,1.485-0.549,2.151
							s-0.897,1.197-1.593,1.593c-0.696,0.396-1.519,0.594-2.467,0.594C1182.109,105.264,1181.277,105.069,1180.576,104.679z
							 M1184.509,103.446c0.444-0.216,0.798-0.537,1.062-0.963c0.265-0.426,0.396-0.939,0.396-1.539
							c0-0.588-0.135-1.096-0.404-1.521c-0.271-0.426-0.628-0.75-1.071-0.972c-0.444-0.222-0.925-0.333-1.44-0.333
							s-0.996,0.111-1.439,0.333c-0.444,0.222-0.799,0.546-1.062,0.972s-0.396,0.934-0.396,1.521c0,0.6,0.133,1.113,0.396,1.539
							s0.618,0.747,1.062,0.963c0.443,0.216,0.924,0.323,1.439,0.323C1183.579,103.77,1184.064,103.662,1184.509,103.446z"/>
						<path fill="#E74C3C" d="M1191.24,104.805c-0.684-0.306-1.203-0.704-1.557-1.196s-0.543-1.002-0.566-1.53
							c0-0.108,0.035-0.195,0.107-0.261c0.072-0.066,0.162-0.1,0.27-0.1h0.811c0.132,0,0.24,0.027,0.324,0.081
							s0.15,0.159,0.197,0.315c0.156,0.611,0.496,1.044,1.018,1.296s1.137,0.378,1.846,0.378c0.863,0,1.551-0.207,2.061-0.621
							s0.765-1.005,0.765-1.773c0-1.464-0.894-2.195-2.682-2.195h-1.692c-0.12,0-0.219-0.039-0.297-0.117s-0.117-0.177-0.117-0.297
							v-0.468c0-0.181,0.066-0.336,0.198-0.469l3.51-3.888h-5.327c-0.121,0-0.22-0.036-0.298-0.108
							c-0.078-0.071-0.116-0.168-0.116-0.287v-0.648c0-0.132,0.038-0.237,0.116-0.315c0.078-0.077,0.177-0.116,0.298-0.116h7.127
							c0.133,0,0.237,0.039,0.315,0.116c0.077,0.078,0.117,0.184,0.117,0.315v0.594c0,0.133-0.061,0.271-0.181,0.414l-3.51,3.942
							h0.288c1.224,0.036,2.192,0.354,2.907,0.954c0.714,0.6,1.07,1.476,1.07,2.628c0,0.792-0.195,1.473-0.584,2.043
							c-0.391,0.57-0.934,1.008-1.629,1.313c-0.697,0.307-1.482,0.459-2.358,0.459
							C1192.734,105.264,1191.925,105.111,1191.24,104.805z"/>
						<path fill="#E74C3C" d="M1205.623,104.175c-0.721-0.726-1.098-1.743-1.135-3.051l-0.018-0.72l0.018-0.721
							c0.037-1.308,0.414-2.324,1.135-3.051c0.72-0.726,1.721-1.089,3.006-1.089c0.863,0,1.593,0.153,2.187,0.459
							c0.595,0.306,1.038,0.688,1.332,1.143c0.294,0.457,0.453,0.912,0.478,1.368c0.012,0.108-0.027,0.204-0.117,0.288
							s-0.189,0.126-0.297,0.126h-0.793c-0.119,0-0.209-0.026-0.27-0.081c-0.061-0.054-0.119-0.152-0.18-0.297
							c-0.217-0.588-0.514-1.005-0.891-1.251c-0.379-0.246-0.855-0.369-1.432-0.369c-0.756,0-1.355,0.234-1.8,0.702
							s-0.685,1.183-0.72,2.143l-0.018,0.63l0.018,0.63c0.035,0.96,0.275,1.674,0.72,2.142s1.044,0.702,1.8,0.702
							c0.588,0,1.068-0.123,1.439-0.369c0.373-0.246,0.666-0.663,0.883-1.251c0.061-0.144,0.119-0.243,0.18-0.297
							s0.15-0.081,0.27-0.081h0.793c0.107,0,0.207,0.042,0.297,0.126s0.129,0.18,0.117,0.288c-0.024,0.444-0.184,0.895-0.478,1.35
							c-0.294,0.457-0.737,0.841-1.332,1.152c-0.594,0.312-1.323,0.468-2.187,0.468
							C1207.344,105.264,1206.343,104.901,1205.623,104.175z"/>
						<path fill="#E74C3C" d="M1214.9,104.967c-0.078-0.078-0.116-0.177-0.116-0.297v-8.532c0-0.119,0.038-0.219,0.116-0.297
							s0.178-0.117,0.298-0.117h0.756c0.12,0,0.216,0.039,0.288,0.117s0.107,0.178,0.107,0.297v0.612
							c0.648-0.804,1.524-1.206,2.629-1.206c1.319,0,2.256,0.552,2.808,1.656c0.288-0.504,0.698-0.906,1.233-1.206
							c0.533-0.3,1.131-0.45,1.791-0.45c0.983,0,1.787,0.336,2.412,1.008c0.623,0.673,0.936,1.645,0.936,2.916v5.202
							c0,0.12-0.039,0.219-0.117,0.297s-0.178,0.117-0.297,0.117h-0.773c-0.121,0-0.22-0.039-0.298-0.117s-0.116-0.177-0.116-0.297
							v-5.04c0-0.96-0.199-1.646-0.595-2.061s-0.918-0.621-1.565-0.621c-0.576,0-1.071,0.213-1.485,0.639s-0.621,1.107-0.621,2.043
							v5.04c0,0.12-0.039,0.219-0.117,0.297s-0.177,0.117-0.297,0.117h-0.792c-0.12,0-0.219-0.039-0.297-0.117
							s-0.117-0.177-0.117-0.297v-5.04c0-0.947-0.207-1.632-0.621-2.052s-0.927-0.63-1.539-0.63c-0.576,0-1.07,0.21-1.484,0.63
							s-0.621,1.098-0.621,2.034v5.058c0,0.12-0.039,0.219-0.117,0.297s-0.178,0.117-0.297,0.117h-0.792
							C1215.078,105.084,1214.979,105.045,1214.9,104.967z"/>
					</g>
				</g>
			</g>
		</g>
	</g>
	<g>
		<g id="POLYLINE_66_">
			
				<line fill="none" stroke="#E74C3C" stroke-width="2" stroke-linecap="round" stroke-linejoin="round" stroke-miterlimit="10" x1="1408.102" y1="327.105" x2="1408.102" y2="263"/>
		</g>
		<g id="LINE_12_">
			
				<line fill="none" stroke="#E74C3C" stroke-width="2" stroke-linecap="round" stroke-linejoin="round" stroke-miterlimit="10" x1="1408.102" y1="215" x2="1408.102" y2="122.104"/>
		</g>
		<g id="POLYLINE_65_">
			
				<polyline fill="none" stroke="#E74C3C" stroke-width="2" stroke-linecap="round" stroke-linejoin="round" stroke-miterlimit="10" points="
				1401.474,128.733 1408.102,122.104 1414.729,128.733 			"/>
		</g>
		<g id="POLYLINE_62_">
			
				<polyline fill="none" stroke="#E74C3C" stroke-width="2" stroke-linecap="round" stroke-linejoin="round" stroke-miterlimit="10" points="
				1414.729,320.478 1408.102,327.105 1401.474,320.478 			"/>
		</g>
		<g id="MTEXT_34_">
			<g>
				<g>
					<g>
						<path fill="#E74C3C" d="M1403.67,233.492c-0.685-0.306-1.203-0.704-1.558-1.196s-0.543-1.002-0.567-1.53
							c0-0.108,0.037-0.195,0.108-0.261c0.072-0.066,0.162-0.1,0.271-0.1h0.81c0.132,0,0.24,0.027,0.324,0.081
							c0.083,0.054,0.149,0.159,0.198,0.315c0.155,0.611,0.494,1.044,1.017,1.296s1.137,0.378,1.845,0.378
							c0.864,0,1.551-0.207,2.062-0.621c0.51-0.414,0.765-1.005,0.765-1.773c0-1.464-0.895-2.195-2.682-2.195h-1.692
							c-0.12,0-0.219-0.039-0.297-0.117s-0.117-0.177-0.117-0.297v-0.468c0-0.181,0.065-0.336,0.198-0.469l3.51-3.888h-5.328
							c-0.119,0-0.219-0.036-0.297-0.108c-0.078-0.071-0.117-0.168-0.117-0.287v-0.648c0-0.132,0.039-0.237,0.117-0.315
							c0.078-0.077,0.178-0.116,0.297-0.116h7.129c0.131,0,0.236,0.039,0.314,0.116c0.078,0.078,0.117,0.184,0.117,0.315v0.594
							c0,0.133-0.061,0.271-0.18,0.414l-3.511,3.942h0.288c1.225,0.036,2.193,0.354,2.907,0.954c0.714,0.6,1.071,1.476,1.071,2.628
							c0,0.792-0.195,1.473-0.586,2.043c-0.39,0.57-0.933,1.008-1.629,1.313c-0.695,0.307-1.482,0.459-2.357,0.459
							C1405.164,233.951,1404.354,233.799,1403.67,233.492z"/>
						<path fill="#E74C3C" d="M1412.534,233.654c-0.078-0.078-0.117-0.177-0.117-0.297v-0.54c0-0.275,0.149-0.54,0.45-0.792
							l3.924-3.906c0.889-0.756,1.5-1.374,1.836-1.854s0.504-0.99,0.504-1.53c0-0.708-0.197-1.263-0.594-1.665
							c-0.396-0.401-0.973-0.603-1.729-0.603c-0.719,0-1.289,0.21-1.709,0.63s-0.679,0.984-0.774,1.691
							c-0.024,0.133-0.084,0.234-0.181,0.307c-0.096,0.072-0.191,0.107-0.287,0.107h-0.864c-0.108,0-0.198-0.035-0.271-0.107
							c-0.071-0.072-0.107-0.156-0.107-0.252c0.023-0.636,0.195-1.251,0.513-1.846c0.317-0.594,0.789-1.079,1.413-1.458
							c0.624-0.378,1.38-0.566,2.268-0.566c1.344,0,2.355,0.351,3.033,1.053s1.018,1.593,1.018,2.673
							c0,0.756-0.184,1.438-0.549,2.043c-0.367,0.606-0.939,1.245-1.719,1.917l-3.547,3.601h5.67c0.133,0,0.234,0.036,0.307,0.107
							c0.072,0.072,0.107,0.175,0.107,0.307v0.684c0,0.12-0.039,0.219-0.117,0.297s-0.177,0.117-0.297,0.117h-7.884
							C1412.711,233.771,1412.612,233.732,1412.534,233.654z"/>
						<path fill="#E74C3C" d="M1423.137,224.304c-0.055-0.072-0.069-0.162-0.045-0.271l0.396-2.52
							c0.048-0.348,0.216-0.522,0.504-0.522h1.152c0.083,0,0.153,0.03,0.207,0.09c0.054,0.061,0.081,0.133,0.081,0.217
							c0,0.12-0.018,0.216-0.055,0.288l-0.936,2.43c-0.061,0.132-0.126,0.231-0.198,0.297c-0.071,0.066-0.18,0.099-0.323,0.099
							h-0.559C1423.266,224.411,1423.19,224.375,1423.137,224.304z M1425.963,224.304c-0.055-0.072-0.07-0.162-0.045-0.271
							l0.396-2.52c0.048-0.348,0.216-0.522,0.504-0.522h1.151c0.084,0,0.154,0.03,0.207,0.09c0.055,0.061,0.082,0.133,0.082,0.217
							c0,0.12-0.019,0.216-0.055,0.288l-0.936,2.43c-0.061,0.132-0.126,0.231-0.198,0.297c-0.071,0.066-0.181,0.099-0.323,0.099
							h-0.559C1426.092,224.411,1426.017,224.375,1425.963,224.304z"/>
						<path fill="#E74C3C" d="M1404.039,253.092c-0.715-0.306-1.27-0.747-1.666-1.322c-0.396-0.576-0.594-1.248-0.594-2.017
							c0-0.708,0.178-1.329,0.531-1.863c0.354-0.533,0.83-0.944,1.432-1.232c-0.48-0.276-0.854-0.639-1.117-1.089
							s-0.396-0.981-0.396-1.594c0-1.044,0.39-1.868,1.17-2.475c0.78-0.605,1.806-0.909,3.078-0.909s2.295,0.301,3.069,0.9
							c0.773,0.6,1.16,1.428,1.16,2.483c0,0.601-0.132,1.125-0.396,1.575c-0.265,0.45-0.63,0.819-1.099,1.107
							c0.601,0.288,1.078,0.699,1.432,1.232c0.354,0.534,0.531,1.161,0.531,1.882c0,0.768-0.198,1.437-0.594,2.007
							c-0.396,0.57-0.951,1.008-1.666,1.313c-0.714,0.307-1.527,0.459-2.438,0.459
							C1405.565,253.551,1404.752,253.398,1404.039,253.092z M1408.61,251.499c0.569-0.432,0.854-1.008,0.854-1.728
							c0-0.721-0.285-1.297-0.854-1.729s-1.28-0.647-2.133-0.647c-0.864,0-1.581,0.216-2.151,0.647s-0.854,1.008-0.854,1.729
							c0,0.72,0.284,1.296,0.854,1.728s1.287,0.648,2.151,0.648C1407.33,252.147,1408.041,251.931,1408.61,251.499z
							 M1408.332,245.451c0.504-0.36,0.756-0.84,0.756-1.44c0-0.611-0.25-1.101-0.748-1.467s-1.119-0.549-1.862-0.549
							c-0.756,0-1.38,0.183-1.872,0.549s-0.738,0.855-0.738,1.467c0,0.612,0.246,1.102,0.738,1.468s1.116,0.549,1.872,0.549
							C1407.209,246.003,1407.828,245.812,1408.332,245.451z"/>
						<path fill="#E74C3C" d="M1416.863,253.254c-0.072-0.078-0.108-0.177-0.108-0.297v-10.152l-3.024,2.322
							c-0.084,0.072-0.174,0.108-0.27,0.108c-0.107,0-0.21-0.061-0.306-0.181l-0.433-0.558c-0.06-0.084-0.09-0.168-0.09-0.252
							c0-0.132,0.061-0.24,0.18-0.324l3.906-3.023c0.133-0.084,0.289-0.126,0.469-0.126h0.846c0.119,0,0.219,0.039,0.297,0.116
							c0.078,0.078,0.117,0.178,0.117,0.298v11.771c0,0.12-0.039,0.219-0.117,0.297s-0.178,0.117-0.297,0.117h-0.883
							C1417.031,253.371,1416.936,253.332,1416.863,253.254z"/>
						<path fill="#E74C3C" d="M1421.174,253.254c-0.078-0.078-0.117-0.177-0.117-0.297v-1.242c0-0.119,0.039-0.222,0.117-0.306
							s0.178-0.126,0.297-0.126h1.242c0.12,0,0.219,0.042,0.297,0.126s0.117,0.187,0.117,0.306v1.242
							c0,0.12-0.039,0.219-0.117,0.297s-0.177,0.117-0.297,0.117h-1.242C1421.352,253.371,1421.252,253.332,1421.174,253.254z"/>
						<path fill="#E74C3C" d="M1427.23,253.092c-0.684-0.306-1.203-0.704-1.557-1.196s-0.543-1.002-0.566-1.53
							c0-0.108,0.035-0.195,0.107-0.261c0.072-0.066,0.162-0.1,0.27-0.1h0.811c0.132,0,0.24,0.027,0.324,0.081
							s0.15,0.159,0.197,0.315c0.156,0.611,0.496,1.044,1.018,1.296s1.137,0.378,1.846,0.378c0.863,0,1.551-0.207,2.061-0.621
							s0.765-1.005,0.765-1.773c0-1.464-0.894-2.195-2.682-2.195h-1.692c-0.12,0-0.219-0.039-0.297-0.117s-0.117-0.177-0.117-0.297
							v-0.468c0-0.181,0.066-0.336,0.198-0.469l3.51-3.888h-5.327c-0.121,0-0.22-0.036-0.298-0.108
							c-0.078-0.071-0.116-0.168-0.116-0.287v-0.648c0-0.132,0.038-0.237,0.116-0.315c0.078-0.077,0.177-0.116,0.298-0.116h7.127
							c0.133,0,0.237,0.039,0.315,0.116c0.077,0.078,0.117,0.184,0.117,0.315v0.594c0,0.133-0.061,0.271-0.181,0.414l-3.51,3.942
							h0.288c1.224,0.036,2.192,0.354,2.907,0.954c0.714,0.6,1.07,1.476,1.07,2.628c0,0.792-0.195,1.473-0.584,2.043
							c-0.391,0.57-0.934,1.008-1.629,1.313c-0.697,0.307-1.482,0.459-2.358,0.459
							C1428.725,253.551,1427.915,253.398,1427.23,253.092z"/>
						<path fill="#E74C3C" d="M1441.613,252.462c-0.721-0.726-1.098-1.743-1.135-3.051l-0.018-0.72l0.018-0.721
							c0.037-1.308,0.414-2.324,1.135-3.051c0.72-0.726,1.721-1.089,3.006-1.089c0.863,0,1.593,0.153,2.187,0.459
							c0.595,0.306,1.038,0.688,1.332,1.143c0.294,0.457,0.453,0.912,0.478,1.368c0.012,0.108-0.027,0.204-0.117,0.288
							s-0.189,0.126-0.297,0.126h-0.793c-0.119,0-0.209-0.026-0.27-0.081c-0.061-0.054-0.119-0.152-0.18-0.297
							c-0.217-0.588-0.514-1.005-0.891-1.251c-0.379-0.246-0.855-0.369-1.432-0.369c-0.756,0-1.355,0.234-1.8,0.702
							s-0.685,1.183-0.72,2.143l-0.018,0.63l0.018,0.63c0.035,0.96,0.275,1.674,0.72,2.142s1.044,0.702,1.8,0.702
							c0.588,0,1.068-0.123,1.439-0.369c0.373-0.246,0.666-0.663,0.883-1.251c0.061-0.144,0.119-0.243,0.18-0.297
							s0.15-0.081,0.27-0.081h0.793c0.107,0,0.207,0.042,0.297,0.126s0.129,0.18,0.117,0.288c-0.024,0.444-0.184,0.895-0.478,1.35
							c-0.294,0.457-0.737,0.841-1.332,1.152c-0.594,0.312-1.323,0.468-2.187,0.468
							C1443.334,253.551,1442.333,253.188,1441.613,252.462z"/>
						<path fill="#E74C3C" d="M1450.891,253.254c-0.078-0.078-0.116-0.177-0.116-0.297v-8.532c0-0.119,0.038-0.219,0.116-0.297
							s0.178-0.117,0.298-0.117h0.756c0.12,0,0.216,0.039,0.288,0.117s0.107,0.178,0.107,0.297v0.612
							c0.648-0.804,1.524-1.206,2.629-1.206c1.319,0,2.256,0.552,2.808,1.656c0.288-0.504,0.698-0.906,1.233-1.206
							c0.533-0.3,1.131-0.45,1.791-0.45c0.983,0,1.787,0.336,2.412,1.008c0.623,0.673,0.936,1.645,0.936,2.916v5.202
							c0,0.12-0.039,0.219-0.117,0.297s-0.178,0.117-0.297,0.117h-0.773c-0.121,0-0.22-0.039-0.298-0.117s-0.116-0.177-0.116-0.297
							v-5.04c0-0.96-0.199-1.646-0.595-2.061s-0.918-0.621-1.565-0.621c-0.576,0-1.071,0.213-1.485,0.639s-0.621,1.107-0.621,2.043
							v5.04c0,0.12-0.039,0.219-0.117,0.297s-0.177,0.117-0.297,0.117h-0.792c-0.12,0-0.219-0.039-0.297-0.117
							s-0.117-0.177-0.117-0.297v-5.04c0-0.947-0.207-1.632-0.621-2.052s-0.927-0.63-1.539-0.63c-0.576,0-1.07,0.21-1.484,0.63
							s-0.621,1.098-0.621,2.034v5.058c0,0.12-0.039,0.219-0.117,0.297s-0.178,0.117-0.297,0.117h-0.792
							C1451.068,253.371,1450.969,253.332,1450.891,253.254z"/>
					</g>
				</g>
			</g>
		</g>
	</g>
	<g>
		<g id="POLYLINE_72_">
			
				<line fill="none" stroke="#E74C3C" stroke-width="2" stroke-linecap="round" stroke-linejoin="round" stroke-miterlimit="10" x1="948.102" y1="327.105" x2="948.102" y2="273"/>
		</g>
		<g id="LINE_13_">
			
				<line fill="none" stroke="#E74C3C" stroke-width="2" stroke-linecap="round" stroke-linejoin="round" stroke-miterlimit="10" x1="948.102" y1="220" x2="948.102" y2="143.104"/>
		</g>
		<g id="POLYLINE_68_">
			
				<polyline fill="none" stroke="#E74C3C" stroke-width="2" stroke-linecap="round" stroke-linejoin="round" stroke-miterlimit="10" points="
				941.474,149.733 948.102,143.104 954.729,149.733 			"/>
		</g>
		<g id="POLYLINE_67_">
			
				<polyline fill="none" stroke="#E74C3C" stroke-width="2" stroke-linecap="round" stroke-linejoin="round" stroke-miterlimit="10" points="
				954.729,320.478 948.102,327.105 941.474,320.478 			"/>
		</g>
		<g id="MTEXT_38_">
			<g>
				<g>
					<g>
						<path fill="#E74C3C" d="M864.962,243.654c-0.078-0.078-0.117-0.177-0.117-0.297v-0.54c0-0.275,0.149-0.54,0.45-0.792
							l3.924-3.906c0.889-0.756,1.5-1.374,1.836-1.854s0.504-0.99,0.504-1.53c0-0.708-0.197-1.263-0.594-1.665
							c-0.396-0.401-0.973-0.603-1.729-0.603c-0.719,0-1.289,0.21-1.709,0.63s-0.679,0.984-0.774,1.691
							c-0.024,0.133-0.084,0.234-0.181,0.307c-0.096,0.072-0.191,0.107-0.287,0.107h-0.864c-0.108,0-0.198-0.035-0.271-0.107
							c-0.071-0.072-0.107-0.156-0.107-0.252c0.023-0.636,0.195-1.251,0.513-1.846c0.317-0.594,0.789-1.079,1.413-1.458
							c0.624-0.378,1.38-0.566,2.268-0.566c1.344,0,2.355,0.351,3.033,1.053s1.018,1.593,1.018,2.673
							c0,0.756-0.184,1.438-0.549,2.043c-0.367,0.606-0.939,1.245-1.719,1.917l-3.547,3.601h5.67c0.133,0,0.234,0.036,0.307,0.107
							c0.072,0.072,0.107,0.175,0.107,0.307v0.684c0,0.12-0.039,0.219-0.117,0.297s-0.177,0.117-0.297,0.117h-7.884
							C865.139,243.771,865.04,243.732,864.962,243.654z"/>
						<path fill="#E74C3C" d="M877.706,243.654c-0.065-0.078-0.099-0.171-0.099-0.279c0-0.083,0.023-0.161,0.072-0.233l2.771-3.853
							c-0.288,0.072-0.624,0.108-1.008,0.108c-0.864-0.012-1.62-0.213-2.268-0.603c-0.648-0.391-1.144-0.9-1.486-1.53
							c-0.342-0.63-0.512-1.305-0.512-2.025c0-0.72,0.17-1.403,0.512-2.052c0.343-0.648,0.853-1.176,1.531-1.584
							c0.678-0.408,1.496-0.612,2.457-0.612c0.959,0,1.781,0.198,2.465,0.595c0.685,0.396,1.2,0.915,1.549,1.557
							c0.348,0.642,0.521,1.329,0.521,2.061c0,0.66-0.117,1.242-0.351,1.746c-0.234,0.504-0.544,1.026-0.927,1.566l-3.492,4.896
							c-0.084,0.108-0.166,0.195-0.243,0.262c-0.078,0.065-0.188,0.099-0.333,0.099h-0.9
							C877.859,243.771,877.771,243.732,877.706,243.654z M881.1,237.634c0.432-0.229,0.773-0.549,1.025-0.963
							s0.378-0.892,0.378-1.432c0-0.552-0.126-1.037-0.378-1.458c-0.252-0.42-0.594-0.744-1.025-0.972
							c-0.433-0.228-0.906-0.342-1.422-0.342c-0.504,0-0.97,0.114-1.396,0.342c-0.427,0.228-0.765,0.552-1.017,0.972
							c-0.252,0.421-0.379,0.906-0.379,1.458c0,0.54,0.127,1.018,0.379,1.432s0.588,0.734,1.008,0.963
							c0.42,0.228,0.888,0.342,1.404,0.342C880.193,237.976,880.667,237.861,881.1,237.634z"/>
						<path fill="#E74C3C" d="M894.221,243.654c-0.072-0.078-0.108-0.177-0.108-0.297v-10.152l-3.024,2.322
							c-0.084,0.072-0.174,0.108-0.27,0.108c-0.107,0-0.21-0.061-0.306-0.181l-0.433-0.558c-0.06-0.084-0.09-0.168-0.09-0.252
							c0-0.132,0.061-0.24,0.18-0.324l3.906-3.023c0.133-0.084,0.289-0.126,0.469-0.126h0.846c0.119,0,0.219,0.039,0.297,0.116
							c0.078,0.078,0.117,0.178,0.117,0.298v11.771c0,0.12-0.039,0.219-0.117,0.297s-0.178,0.117-0.297,0.117h-0.883
							C894.389,243.771,894.293,243.732,894.221,243.654z"/>
						<path fill="#E74C3C" d="M897.767,245.176c-0.072-0.072-0.108-0.156-0.108-0.252c0-0.049,0.018-0.12,0.055-0.217l6.156-14.777
							c0.107-0.204,0.264-0.307,0.467-0.307h0.666c0.096,0,0.181,0.036,0.252,0.108c0.072,0.072,0.108,0.156,0.108,0.252
							c0,0.048-0.019,0.12-0.054,0.216l-6.174,14.778c-0.024,0.072-0.075,0.141-0.153,0.207c-0.078,0.065-0.183,0.099-0.315,0.099
							h-0.647C897.922,245.283,897.838,245.247,897.767,245.176z"/>
						<path fill="#E74C3C" d="M911.743,243.654c-0.078-0.078-0.117-0.177-0.117-0.297v-2.628h-5.85c-0.12,0-0.22-0.039-0.298-0.117
							s-0.116-0.177-0.116-0.297v-0.666c0-0.168,0.065-0.348,0.198-0.54l5.418-7.632c0.06-0.096,0.149-0.171,0.27-0.225
							c0.12-0.055,0.252-0.081,0.396-0.081h1.224c0.132,0,0.233,0.035,0.306,0.107s0.108,0.174,0.108,0.307v7.632h1.638
							c0.12,0,0.219,0.039,0.297,0.117s0.117,0.177,0.117,0.297v0.684c0,0.12-0.039,0.219-0.117,0.297s-0.177,0.117-0.297,0.117
							h-1.638v2.628c0,0.12-0.039,0.219-0.117,0.297s-0.177,0.117-0.297,0.117h-0.828
							C911.92,243.771,911.821,243.732,911.743,243.654z M907.234,239.254h4.41v-6.265L907.234,239.254z"/>
						<path fill="#E74C3C" d="M917.017,234.304c-0.054-0.072-0.069-0.162-0.045-0.271l0.396-2.52
							c0.049-0.348,0.217-0.522,0.504-0.522h1.152c0.084,0,0.153,0.03,0.207,0.09c0.055,0.061,0.081,0.133,0.081,0.217
							c0,0.12-0.018,0.216-0.054,0.288l-0.936,2.43c-0.061,0.132-0.127,0.231-0.199,0.297c-0.071,0.066-0.18,0.099-0.323,0.099
							h-0.558C917.146,234.411,917.07,234.375,917.017,234.304z M919.843,234.304c-0.054-0.072-0.069-0.162-0.045-0.271l0.396-2.52
							c0.049-0.348,0.217-0.522,0.504-0.522h1.152c0.084,0,0.153,0.03,0.207,0.09c0.055,0.061,0.081,0.133,0.081,0.217
							c0,0.12-0.019,0.216-0.054,0.288l-0.936,2.43c-0.061,0.132-0.127,0.231-0.199,0.297c-0.071,0.066-0.18,0.099-0.323,0.099
							h-0.558C919.972,234.411,919.896,234.375,919.843,234.304z"/>
						<path fill="#E74C3C" d="M922.812,238.983c-0.078-0.072-0.117-0.168-0.117-0.288v-0.647c0-0.12,0.039-0.219,0.117-0.298
							c0.078-0.077,0.178-0.116,0.297-0.116h5.4c0.119,0,0.219,0.039,0.297,0.116c0.078,0.079,0.117,0.178,0.117,0.298v0.647
							c0,0.12-0.039,0.216-0.117,0.288s-0.178,0.108-0.297,0.108h-5.4C922.99,239.092,922.891,239.056,922.812,238.983z"/>
						<path fill="#E74C3C" d="M932.668,243.492c-0.684-0.306-1.203-0.704-1.557-1.196c-0.354-0.492-0.543-1.002-0.567-1.53
							c0-0.108,0.036-0.195,0.108-0.261c0.072-0.066,0.162-0.1,0.27-0.1h0.811c0.131,0,0.24,0.027,0.324,0.081
							c0.083,0.054,0.149,0.159,0.197,0.315c0.156,0.611,0.495,1.044,1.018,1.296c0.521,0.252,1.137,0.378,1.845,0.378
							c0.864,0,1.551-0.207,2.062-0.621c0.51-0.414,0.764-1.005,0.764-1.773c0-1.464-0.894-2.195-2.682-2.195h-1.691
							c-0.121,0-0.219-0.039-0.297-0.117s-0.117-0.177-0.117-0.297v-0.468c0-0.181,0.065-0.336,0.197-0.469l3.51-3.888h-5.327
							c-0.12,0-0.22-0.036-0.298-0.108c-0.078-0.071-0.116-0.168-0.116-0.287v-0.648c0-0.132,0.038-0.237,0.116-0.315
							c0.078-0.077,0.178-0.116,0.298-0.116h7.128c0.132,0,0.236,0.039,0.314,0.116c0.078,0.078,0.117,0.184,0.117,0.315v0.594
							c0,0.133-0.061,0.271-0.18,0.414l-3.51,3.942h0.287c1.225,0.036,2.193,0.354,2.908,0.954c0.713,0.6,1.07,1.476,1.07,2.628
							c0,0.792-0.195,1.473-0.585,2.043s-0.933,1.008-1.629,1.313c-0.696,0.307-1.482,0.459-2.358,0.459
							C934.162,243.951,933.352,243.799,932.668,243.492z"/>
						<path fill="#E74C3C" d="M944.891,243.654c-0.072-0.078-0.109-0.177-0.109-0.297v-10.152l-3.023,2.322
							c-0.084,0.072-0.174,0.108-0.27,0.108c-0.108,0-0.211-0.061-0.307-0.181l-0.432-0.558c-0.061-0.084-0.09-0.168-0.09-0.252
							c0-0.132,0.06-0.24,0.18-0.324l3.906-3.023c0.132-0.084,0.288-0.126,0.468-0.126h0.847c0.119,0,0.219,0.039,0.297,0.116
							c0.078,0.078,0.117,0.178,0.117,0.298v11.771c0,0.12-0.039,0.219-0.117,0.297s-0.178,0.117-0.297,0.117h-0.883
							C945.059,243.771,944.962,243.732,944.891,243.654z"/>
						<path fill="#E74C3C" d="M948.949,234.304c-0.055-0.072-0.069-0.162-0.045-0.271l0.396-2.52
							c0.048-0.348,0.216-0.522,0.504-0.522h1.152c0.083,0,0.153,0.03,0.207,0.09c0.054,0.061,0.081,0.133,0.081,0.217
							c0,0.12-0.018,0.216-0.055,0.288l-0.936,2.43c-0.061,0.132-0.126,0.231-0.198,0.297c-0.071,0.066-0.18,0.099-0.323,0.099
							h-0.559C949.078,234.411,949.003,234.375,948.949,234.304z M951.775,234.304c-0.055-0.072-0.07-0.162-0.045-0.271l0.396-2.52
							c0.048-0.348,0.216-0.522,0.504-0.522h1.151c0.084,0,0.154,0.03,0.207,0.09c0.055,0.061,0.082,0.133,0.082,0.217
							c0,0.12-0.019,0.216-0.055,0.288l-0.936,2.43c-0.061,0.132-0.126,0.231-0.198,0.297c-0.071,0.066-0.181,0.099-0.323,0.099H952
							C951.904,234.411,951.829,234.375,951.775,234.304z"/>
						<path fill="#E74C3C" d="M851.012,263.254c-0.066-0.078-0.1-0.171-0.1-0.279l0.037-0.161l4.5-10.53h-5.94
							c-0.12,0-0.22-0.039-0.297-0.117c-0.078-0.078-0.117-0.177-0.117-0.297v-0.666c0-0.132,0.036-0.237,0.108-0.315
							c0.072-0.077,0.174-0.116,0.306-0.116h7.344c0.132,0,0.234,0.039,0.306,0.116c0.072,0.078,0.108,0.184,0.108,0.315v0.612
							c0,0.216-0.048,0.449-0.144,0.702l-4.446,10.403c-0.06,0.133-0.126,0.24-0.198,0.324s-0.174,0.126-0.306,0.126h-0.899
							C851.164,263.371,851.078,263.332,851.012,263.254z"/>
						<path fill="#E74C3C" d="M864.08,263.254c-0.078-0.078-0.117-0.177-0.117-0.297v-2.628h-5.85c-0.121,0-0.22-0.039-0.298-0.117
							s-0.116-0.177-0.116-0.297v-0.666c0-0.168,0.065-0.348,0.197-0.54l5.418-7.632c0.061-0.096,0.15-0.171,0.27-0.225
							c0.121-0.055,0.252-0.081,0.396-0.081h1.225c0.131,0,0.233,0.035,0.306,0.107c0.071,0.072,0.108,0.174,0.108,0.307v7.632
							h1.638c0.12,0,0.219,0.039,0.297,0.117c0.077,0.078,0.116,0.177,0.116,0.297v0.684c0,0.12-0.039,0.219-0.116,0.297
							c-0.078,0.078-0.177,0.117-0.297,0.117h-1.638v2.628c0,0.12-0.039,0.219-0.117,0.297s-0.178,0.117-0.297,0.117h-0.828
							C864.256,263.371,864.158,263.332,864.08,263.254z M859.57,258.854h4.41v-6.265L859.57,258.854z"/>
						<path fill="#E74C3C" d="M869.318,263.254c-0.078-0.078-0.117-0.177-0.117-0.297v-1.242c0-0.119,0.039-0.222,0.117-0.306
							s0.177-0.126,0.297-0.126h1.242c0.119,0,0.219,0.042,0.297,0.126s0.117,0.187,0.117,0.306v1.242
							c0,0.12-0.039,0.219-0.117,0.297s-0.178,0.117-0.297,0.117h-1.242C869.495,263.371,869.396,263.332,869.318,263.254z"/>
						<path fill="#E74C3C" d="M875.375,263.092c-0.684-0.306-1.203-0.704-1.557-1.196c-0.354-0.492-0.543-1.002-0.567-1.53
							c0-0.108,0.036-0.195,0.108-0.261c0.072-0.066,0.162-0.1,0.27-0.1h0.811c0.131,0,0.24,0.027,0.324,0.081
							c0.083,0.054,0.149,0.159,0.197,0.315c0.156,0.611,0.495,1.044,1.018,1.296c0.521,0.252,1.137,0.378,1.845,0.378
							c0.864,0,1.551-0.207,2.062-0.621c0.51-0.414,0.764-1.005,0.764-1.773c0-1.464-0.894-2.195-2.682-2.195h-1.691
							c-0.121,0-0.219-0.039-0.297-0.117s-0.117-0.177-0.117-0.297v-0.468c0-0.181,0.065-0.336,0.197-0.469l3.51-3.888h-5.327
							c-0.12,0-0.22-0.036-0.298-0.108c-0.078-0.071-0.116-0.168-0.116-0.287v-0.648c0-0.132,0.038-0.237,0.116-0.315
							c0.078-0.077,0.178-0.116,0.298-0.116h7.128c0.132,0,0.236,0.039,0.314,0.116c0.078,0.078,0.117,0.184,0.117,0.315v0.594
							c0,0.133-0.061,0.271-0.18,0.414l-3.51,3.942h0.287c1.225,0.036,2.193,0.354,2.908,0.954c0.713,0.6,1.07,1.476,1.07,2.628
							c0,0.792-0.195,1.473-0.585,2.043s-0.933,1.008-1.629,1.313c-0.696,0.307-1.482,0.459-2.358,0.459
							C876.869,263.551,876.059,263.398,875.375,263.092z"/>
						<path fill="#E74C3C" d="M884.6,258.583c-0.078-0.072-0.117-0.168-0.117-0.288v-0.647c0-0.12,0.039-0.219,0.117-0.298
							c0.078-0.077,0.178-0.116,0.297-0.116h5.4c0.119,0,0.219,0.039,0.297,0.116c0.078,0.079,0.117,0.178,0.117,0.298v0.647
							c0,0.12-0.039,0.216-0.117,0.288s-0.178,0.108-0.297,0.108h-5.4C884.777,258.691,884.678,258.655,884.6,258.583z"/>
						<path fill="#E74C3C" d="M893.348,263.254c-0.066-0.078-0.1-0.171-0.1-0.279l0.037-0.161l4.5-10.53h-5.94
							c-0.12,0-0.22-0.039-0.297-0.117c-0.078-0.078-0.117-0.177-0.117-0.297v-0.666c0-0.132,0.036-0.237,0.108-0.315
							c0.072-0.077,0.174-0.116,0.306-0.116h7.344c0.132,0,0.234,0.039,0.306,0.116c0.072,0.078,0.108,0.184,0.108,0.315v0.612
							c0,0.216-0.048,0.449-0.144,0.702l-4.446,10.403c-0.06,0.133-0.126,0.24-0.198,0.324s-0.174,0.126-0.306,0.126h-0.899
							C893.5,263.371,893.414,263.332,893.348,263.254z"/>
						<path fill="#E74C3C" d="M903.355,263.092c-0.715-0.306-1.27-0.747-1.665-1.322c-0.396-0.576-0.595-1.248-0.595-2.017
							c0-0.708,0.178-1.329,0.531-1.863c0.354-0.533,0.831-0.944,1.432-1.232c-0.48-0.276-0.853-0.639-1.116-1.089
							c-0.265-0.45-0.396-0.981-0.396-1.594c0-1.044,0.389-1.868,1.17-2.475c0.779-0.605,1.806-0.909,3.078-0.909
							c1.271,0,2.295,0.301,3.068,0.9s1.161,1.428,1.161,2.483c0,0.601-0.132,1.125-0.396,1.575
							c-0.265,0.45-0.631,0.819-1.099,1.107c0.601,0.288,1.077,0.699,1.431,1.232c0.354,0.534,0.531,1.161,0.531,1.882
							c0,0.768-0.197,1.437-0.594,2.007s-0.951,1.008-1.665,1.313c-0.714,0.307-1.527,0.459-2.438,0.459
							C904.883,263.551,904.069,263.398,903.355,263.092z M907.928,261.499c0.569-0.432,0.854-1.008,0.854-1.728
							c0-0.721-0.285-1.297-0.854-1.729c-0.57-0.432-1.281-0.647-2.133-0.647c-0.865,0-1.582,0.216-2.151,0.647
							c-0.57,0.432-0.854,1.008-0.854,1.729c0,0.72,0.284,1.296,0.854,1.728c0.569,0.432,1.286,0.648,2.151,0.648
							C906.646,262.147,907.357,261.931,907.928,261.499z M907.648,255.451c0.504-0.36,0.756-0.84,0.756-1.44
							c0-0.611-0.249-1.101-0.747-1.467s-1.119-0.549-1.862-0.549c-0.756,0-1.381,0.183-1.873,0.549s-0.737,0.855-0.737,1.467
							c0,0.612,0.245,1.102,0.737,1.468s1.117,0.549,1.873,0.549C906.526,256.003,907.145,255.812,907.648,255.451z"/>
						<path fill="#E74C3C" d="M912.661,263.254c-0.078-0.078-0.116-0.177-0.116-0.297v-1.242c0-0.119,0.038-0.222,0.116-0.306
							s0.177-0.126,0.298-0.126h1.241c0.12,0,0.219,0.042,0.297,0.126s0.117,0.187,0.117,0.306v1.242
							c0,0.12-0.039,0.219-0.117,0.297s-0.177,0.117-0.297,0.117h-1.241C912.838,263.371,912.739,263.332,912.661,263.254z"/>
						<path fill="#E74C3C" d="M917.719,263.254c-0.065-0.078-0.099-0.171-0.099-0.279l0.036-0.161l4.5-10.53h-5.939
							c-0.121,0-0.22-0.039-0.297-0.117c-0.078-0.078-0.117-0.177-0.117-0.297v-0.666c0-0.132,0.035-0.237,0.107-0.315
							c0.072-0.077,0.174-0.116,0.307-0.116h7.344c0.132,0,0.234,0.039,0.306,0.116c0.072,0.078,0.108,0.184,0.108,0.315v0.612
							c0,0.216-0.049,0.449-0.145,0.702l-4.445,10.403c-0.061,0.133-0.127,0.24-0.199,0.324c-0.071,0.084-0.174,0.126-0.305,0.126
							h-0.9C917.872,263.371,917.785,263.332,917.719,263.254z"/>
						<path fill="#E74C3C" d="M930.977,262.462c-0.721-0.726-1.098-1.743-1.135-3.051l-0.018-0.72l0.018-0.721
							c0.037-1.308,0.414-2.324,1.135-3.051c0.72-0.726,1.721-1.089,3.006-1.089c0.863,0,1.593,0.153,2.187,0.459
							c0.595,0.306,1.038,0.688,1.332,1.143c0.294,0.457,0.453,0.912,0.478,1.368c0.012,0.108-0.027,0.204-0.117,0.288
							s-0.189,0.126-0.297,0.126h-0.793c-0.119,0-0.209-0.026-0.27-0.081c-0.061-0.054-0.119-0.152-0.18-0.297
							c-0.217-0.588-0.514-1.005-0.891-1.251c-0.379-0.246-0.855-0.369-1.432-0.369c-0.756,0-1.355,0.234-1.8,0.702
							s-0.685,1.183-0.72,2.143l-0.018,0.63l0.018,0.63c0.035,0.96,0.275,1.674,0.72,2.142s1.044,0.702,1.8,0.702
							c0.588,0,1.068-0.123,1.439-0.369c0.373-0.246,0.666-0.663,0.883-1.251c0.061-0.144,0.119-0.243,0.18-0.297
							s0.15-0.081,0.27-0.081h0.793c0.107,0,0.207,0.042,0.297,0.126s0.129,0.18,0.117,0.288c-0.024,0.444-0.184,0.895-0.478,1.35
							c-0.294,0.457-0.737,0.841-1.332,1.152c-0.594,0.312-1.323,0.468-2.187,0.468
							C932.697,263.551,931.696,263.188,930.977,262.462z"/>
						<path fill="#E74C3C" d="M940.254,263.254c-0.078-0.078-0.116-0.177-0.116-0.297v-8.532c0-0.119,0.038-0.219,0.116-0.297
							s0.178-0.117,0.298-0.117h0.756c0.12,0,0.216,0.039,0.288,0.117s0.107,0.178,0.107,0.297v0.612
							c0.648-0.804,1.524-1.206,2.629-1.206c1.319,0,2.256,0.552,2.808,1.656c0.288-0.504,0.698-0.906,1.233-1.206
							c0.533-0.3,1.131-0.45,1.791-0.45c0.983,0,1.787,0.336,2.412,1.008c0.623,0.673,0.936,1.645,0.936,2.916v5.202
							c0,0.12-0.039,0.219-0.117,0.297s-0.178,0.117-0.297,0.117h-0.773c-0.121,0-0.22-0.039-0.298-0.117s-0.116-0.177-0.116-0.297
							v-5.04c0-0.96-0.199-1.646-0.595-2.061s-0.918-0.621-1.565-0.621c-0.576,0-1.071,0.213-1.485,0.639s-0.621,1.107-0.621,2.043
							v5.04c0,0.12-0.039,0.219-0.117,0.297s-0.177,0.117-0.297,0.117h-0.792c-0.12,0-0.219-0.039-0.297-0.117
							s-0.117-0.177-0.117-0.297v-5.04c0-0.947-0.207-1.632-0.621-2.052s-0.927-0.63-1.539-0.63c-0.576,0-1.07,0.21-1.484,0.63
							s-0.621,1.098-0.621,2.034v5.058c0,0.12-0.039,0.219-0.117,0.297s-0.178,0.117-0.297,0.117h-0.792
							C940.432,263.371,940.332,263.332,940.254,263.254z"/>
					</g>
				</g>
			</g>
		</g>
	</g>
</g>
<g id="N-TEXT">
</g>
<g id="AG-DIAGRAM">
	<g id="POLYLINE_289_">
		<g>
			<g>
				
					<line fill="none" stroke="#E74C3C" stroke-width="3" stroke-linecap="round" stroke-linejoin="round" x1="61.646" y1="333.006" x2="63.646" y2="333.006"/>
				
					<line fill="none" stroke="#E74C3C" stroke-width="3" stroke-linecap="round" stroke-linejoin="round" stroke-dasharray="3.9973,5.996" x1="69.642" y1="333.006" x2="846.122" y2="333.006"/>
				
					<line fill="none" stroke="#E74C3C" stroke-width="3" stroke-linecap="round" stroke-linejoin="round" x1="849.12" y1="333.006" x2="851.12" y2="333.006"/>
			</g>
		</g>
	</g>
	<g id="POLYLINE_562_">
		<g>
			<g>
				
					<line fill="none" stroke="#E74C3C" stroke-width="3" stroke-linecap="round" stroke-linejoin="round" x1="948.081" y1="333.006" x2="950.081" y2="333.006"/>
				
					<line fill="none" stroke="#E74C3C" stroke-width="3" stroke-linecap="round" stroke-linejoin="round" stroke-dasharray="3.9715,5.9573" x1="956.038" y1="333.006" x2="1409.787" y2="333.006"/>
				
					<line fill="none" stroke="#E74C3C" stroke-width="3" stroke-linecap="round" stroke-linejoin="round" x1="1412.765" y1="333.006" x2="1414.765" y2="333.006"/>
			</g>
		</g>
	</g>
</g>
<g id="AG-DETAIL-DIAGRAM">
	<g id="POLYLINE_232_">
		<g>
			<g>
				
					<line fill="none" stroke="#E74C3C" stroke-width="3" stroke-linecap="round" stroke-linejoin="round" x1="785.331" y1="122.48" x2="785.331" y2="124.48"/>
				
					<line fill="none" stroke="#E74C3C" stroke-width="3" stroke-linecap="round" stroke-linejoin="round" stroke-dasharray="3.523,5.2845" x1="785.331" y1="129.764" x2="785.331" y2="135.93"/>
				<polyline fill="none" stroke="#E74C3C" stroke-width="3" stroke-linecap="round" stroke-linejoin="round" points="
					785.331,138.572 785.331,140.572 783.331,140.572 				"/>
				
					<line fill="none" stroke="#E74C3C" stroke-width="3" stroke-linecap="round" stroke-linejoin="round" stroke-dasharray="3.9872,5.9808" x1="777.35" y1="140.572" x2="132.426" y2="140.572"/>
				<polyline fill="none" stroke="#E74C3C" stroke-width="3" stroke-linecap="round" stroke-linejoin="round" points="
					129.435,140.572 127.435,140.572 127.435,138.572 				"/>
				
					<line fill="none" stroke="#E74C3C" stroke-width="3" stroke-linecap="round" stroke-linejoin="round" stroke-dasharray="3.523,5.2845" x1="127.435" y1="133.287" x2="127.435" y2="127.122"/>
				
					<line fill="none" stroke="#E74C3C" stroke-width="3" stroke-linecap="round" stroke-linejoin="round" x1="127.435" y1="124.48" x2="127.435" y2="122.48"/>
			</g>
		</g>
	</g>
	<g id="POLYLINE_238_">
		<g>
			<g>
				
					<line fill="none" stroke="#E74C3C" stroke-width="3" stroke-linecap="round" stroke-linejoin="round" x1="1342.397" y1="122.48" x2="1342.397" y2="124.48"/>
				
					<line fill="none" stroke="#E74C3C" stroke-width="3" stroke-linecap="round" stroke-linejoin="round" stroke-dasharray="3.523,5.2845" x1="1342.397" y1="129.764" x2="1342.397" y2="135.93"/>
				<polyline fill="none" stroke="#E74C3C" stroke-width="3" stroke-linecap="round" stroke-linejoin="round" points="
					1342.397,138.572 1342.397,140.572 1340.397,140.572 				"/>
				
					<line fill="none" stroke="#E74C3C" stroke-width="3" stroke-linecap="round" stroke-linejoin="round" stroke-dasharray="3.9871,5.9806" x1="1334.416" y1="140.572" x2="1018.439" y2="140.572"/>
				<polyline fill="none" stroke="#E74C3C" stroke-width="3" stroke-linecap="round" stroke-linejoin="round" points="
					1015.449,140.572 1013.449,140.572 1013.449,138.572 				"/>
				
					<line fill="none" stroke="#E74C3C" stroke-width="3" stroke-linecap="round" stroke-linejoin="round" stroke-dasharray="3.523,5.2845" x1="1013.449" y1="133.287" x2="1013.449" y2="127.122"/>
				
					<line fill="none" stroke="#E74C3C" stroke-width="3" stroke-linecap="round" stroke-linejoin="round" x1="1013.449" y1="124.48" x2="1013.449" y2="122.48"/>
			</g>
		</g>
	</g>
</g>
<g id="AG-DETAIL">
</g>
<g id="AG-PEOPLE">
</g>
<g id="AG-SPORTS">
	<g id="POLYLINE_556_">
		
			<polyline fill="none" stroke="#E74C3C" stroke-width="2.5" stroke-linecap="round" stroke-linejoin="round" stroke-miterlimit="10" points="
			1341.799,194.84 1329.238,333.006 1289.765,333.006 1282.288,250.763 1073.558,250.749 1066.08,333.006 1026.606,333.006 
			1014.042,194.803 		"/>
	</g>
	<g id="POLYLINE_317_">
		
			<path fill="none" stroke="#E74C3C" stroke-width="2.5" stroke-linecap="round" stroke-linejoin="round" stroke-miterlimit="10" d="
			M821.8,194.848c2.244-0.019,3.171-1.845,3.347-3.78c0.216-2.372,0.431-4.744,0.647-7.116c0.811-8.925,1.623-17.849,2.434-26.774
			c0.77-8.466,1.539-16.932,2.309-25.399c0.167-1.84,0.365-3.681,0.502-5.524c0.151-2.025-1.185-3.698-3.267-3.776
			c-0.596-0.022-1.198,0-1.794,0c-1.607,0-3.213,0-4.82,0c-2.558,0-5.115,0-7.673,0c-3.438,0-6.876,0-10.315,0
			c-4.269,0-8.538,0-12.807,0c-5.061,0-10.122,0-15.183,0c-5.783,0-11.565,0-17.348,0c-6.424,0-12.849,0-19.273,0
			c-7.027,0-14.055,0-21.082,0c-7.573,0-15.147,0-22.72,0c-8.091,0-16.181,0-24.272,0c-8.526,0-17.051,0-25.577,0
			c-8.873,0-17.746,0-26.619,0c-9.191,0-18.383,0-27.574,0c-9.485,0-18.97,0-28.455,0c-9.691,0-19.382,0-29.073,0
			c-9.806,0-19.613,0-29.419,0c-9.897,0-19.794,0-29.691,0c-9.931,0-19.861,0-29.792,0c-9.941,0-19.881,0-29.822,0
			c-9.86,0-19.72,0-29.58,0c-9.69,0-19.38,0-29.069,0c-9.496,0-18.992,0-28.487,0c-9.275,0-18.551,0-27.826,0
			c-8.966,0-17.931,0-26.897,0c-8.57,0-17.14,0-25.71,0c-8.148,0-16.297,0-24.445,0c-7.67,0-15.339,0-23.009,0
			c-7.157,0-14.315,0-21.472,0c-6.561,0-13.122,0-19.682,0c-5.888,0-11.777,0-17.665,0c-5.182,0-10.364,0-15.546,0
			c-4.432,0-8.864,0-13.297,0c-3.606,0-7.213,0-10.819,0c-2.716,0-5.431,0-8.147,0c-1.782,0-3.563,0-5.345,0
			c-0.79,0-1.582-0.02-2.372,0c-1.446,0.038-2.749,0.821-3.226,2.24c-0.423,1.256-0.014,2.939,0.102,4.216
			c0.694,7.631,1.387,15.262,2.081,22.893c0.849,9.339,1.698,18.677,2.547,28.016c0.281,3.088,0.561,6.175,0.842,9.263
			c0.118,1.303,0.023,3.057,0.766,4.196c0.918,1.407,2.311,1.491,3.762,1.491c1.375,0,2.75,0,4.125,0c2.345,0,4.69,0,7.035,0.001
			c3.259,0,6.518,0.001,9.778,0.001c4.115,0,8.23,0.001,12.344,0.001c4.929,0,9.859,0.001,14.788,0.001
			c5.672,0,11.345,0.001,17.017,0.001c6.334,0,12.667,0.001,19.001,0.001c6.954,0.001,13.908,0.001,20.862,0.002
			c7.542,0.001,15.084,0.001,22.626,0.002c8.048,0.001,16.096,0.001,24.144,0.002c8.466,0.001,16.932,0.001,25.398,0.002
			c8.851,0.001,17.702,0.001,26.553,0.002c9.178,0.001,18.355,0.001,27.533,0.002c9.478,0.001,18.955,0.001,28.433,0.002
			c9.688,0.001,19.376,0.001,29.064,0.002c9.806,0.001,19.612,0.001,29.418,0.002c9.897,0.001,19.795,0.001,29.692,0.002
			c9.963,0.001,19.926,0.001,29.89,0.002c9.937,0.001,19.874,0.001,29.81,0.002c9.818,0.001,19.637,0.001,29.455,0.002
			c9.675,0.001,19.349,0.001,29.024,0.002c9.472,0.001,18.944,0.001,28.416,0.002c9.241,0.001,18.482,0.001,27.724,0.002
			c8.919,0.001,17.838,0.001,26.757,0.002c8.51,0.001,17.019,0.001,25.529,0.002c8.072,0.001,16.144,0.001,24.216,0.002
			c7.6,0.001,15.2,0.001,22.8,0.002c7.041,0.001,14.082,0.001,21.123,0.002c6.402,0,12.805,0.001,19.207,0.001
			c5.729,0,11.459,0.001,17.188,0.001c4.998,0,9.996,0.001,14.993,0.001c4.22,0,8.44,0.001,12.661,0.001
			c3.365,0,6.731,0,10.096,0.001c2.445,0,4.889,0,7.334,0.001c1.478,0,2.956,0,4.434,0
			C820.89,194.848,821.345,194.848,821.8,194.848z"/>
	</g>
	<g id="POLYLINE_316_">
		
			<polyline fill="none" stroke="#E74C3C" stroke-width="2.5" stroke-linecap="round" stroke-linejoin="round" stroke-miterlimit="10" points="
			705.786,194.84 693.225,333.006 653.752,333.006 641.191,194.835 		"/>
	</g>
	<g id="POLYLINE_315_">
		
			<polyline fill="none" stroke="#E74C3C" stroke-width="2.5" stroke-linecap="round" stroke-linejoin="round" stroke-miterlimit="10" points="
			271.578,194.808 259.014,333.006 219.541,333.006 206.977,194.803 		"/>
	</g>
	<g id="POLYLINE_555_">
		
			<path fill="none" stroke="#E74C3C" stroke-width="2.5" stroke-linecap="round" stroke-linejoin="round" stroke-miterlimit="10" d="
			M1379.182,194.848c1.694-0.018,3.038-1.275,3.27-2.931c0.08-0.574,0.106-1.162,0.158-1.739c0.321-3.527,0.641-7.054,0.962-10.58
			c1.025-11.274,2.05-22.549,3.075-33.823c0.596-6.552,1.441-13.134,1.791-19.705c0.107-2-1.377-3.536-3.358-3.59
			c-0.561-0.015-1.124,0-1.685,0c-2.988,0-5.977,0-8.965,0c-5.173,0-10.345,0-15.518,0c-7.1,0-14.201,0-21.301,0
			c-8.662,0-17.324,0-25.987,0c-9.927,0-19.855,0-29.783,0c-10.911,0-21.822,0-32.732,0c-11.486,0-22.971,0-34.457,0
			c-11.875,0-23.749,0-35.624,0c-11.884,0-23.769,0-35.653,0c-11.514,0-23.028,0-34.543,0c-10.959,0-21.917,0-32.876,0
			c-10.021,0-20.042,0-30.062,0c-8.722,0-17.443,0-26.165,0c-7.206,0-14.411,0-21.617,0c-5.32,0-10.641,0-15.961,0
			c-3.108,0-6.216,0-9.323,0c-2.201,0-4.941-0.146-5.396,2.785c-0.089,0.571,0.007,1.161,0.059,1.731
			c0.11,1.208,0.22,2.417,0.329,3.625c0.401,4.406,0.801,8.812,1.202,13.218c1.027,11.299,2.054,22.598,3.081,33.897
			c0.348,3.832,0.697,7.665,1.045,11.497c0.18,1.978,0.047,4.399,2.252,5.311c1.363,0.564,3.334,0.249,4.757,0.25
			c3.7,0.001,7.401,0.001,11.101,0.002c5.881,0.001,11.763,0.002,17.644,0.002c7.679,0.001,15.358,0.002,23.037,0.003
			c9.229,0.001,18.458,0.003,27.687,0.004c10.405,0.001,20.81,0.003,31.215,0.004c11.181,0.001,22.362,0.003,33.543,0.005
			c11.749,0.002,23.498,0.003,35.246,0.005c11.887,0.002,23.774,0.003,35.661,0.005c11.724,0.002,23.449,0.003,35.173,0.005
			c11.26,0.002,22.519,0.003,33.779,0.005c10.371,0.001,20.742,0.003,31.112,0.004c9.265,0.001,18.529,0.002,27.793,0.004
			c7.762,0.001,15.523,0.002,23.285,0.003c5.896,0.001,11.792,0.002,17.688,0.002c3.762,0.001,7.525,0.001,11.287,0.002
			C1376.668,194.848,1377.925,194.848,1379.182,194.848z"/>
	</g>
</g>
<g id="AG-OUTLINE">
	<g id="POLYLINE_457_">
		
			<path fill="none" stroke="#E74C3C" stroke-width="3.25" stroke-linecap="round" stroke-linejoin="round" stroke-miterlimit="10" d="
			M1379.182,194.848c1.694-0.018,3.038-1.275,3.27-2.931c0.08-0.574,0.106-1.162,0.158-1.739c0.321-3.527,0.641-7.054,0.962-10.58
			c1.025-11.274,2.05-22.549,3.075-33.823c0.596-6.552,1.441-13.134,1.791-19.705c0.107-2-1.377-3.536-3.358-3.59
			c-0.561-0.015-1.124,0-1.685,0c-2.988,0-5.977,0-8.965,0c-5.173,0-10.345,0-15.518,0c-7.1,0-14.201,0-21.301,0
			c-8.662,0-17.324,0-25.987,0c-9.927,0-19.855,0-29.783,0c-10.911,0-21.822,0-32.732,0c-11.486,0-22.971,0-34.457,0
			c-11.875,0-23.749,0-35.624,0c-11.884,0-23.769,0-35.653,0c-11.514,0-23.028,0-34.543,0c-10.959,0-21.917,0-32.876,0
			c-10.021,0-20.042,0-30.062,0c-8.722,0-17.443,0-26.165,0c-7.206,0-14.411,0-21.617,0c-5.32,0-10.641,0-15.961,0
			c-3.108,0-6.216,0-9.323,0c-2.201,0-4.941-0.146-5.396,2.785c-0.089,0.571,0.007,1.161,0.059,1.731
			c0.11,1.208,0.22,2.417,0.329,3.625c0.401,4.406,0.801,8.812,1.202,13.218c1.027,11.299,2.054,22.598,3.081,33.897
			c0.348,3.832,0.697,7.665,1.045,11.497c0.18,1.978,0.047,4.399,2.252,5.311c1.363,0.564,3.334,0.249,4.757,0.25
			c3.7,0.001,7.401,0.001,11.101,0.002c5.881,0.001,11.763,0.002,17.644,0.002c7.679,0.001,15.358,0.002,23.037,0.003
			c9.229,0.001,18.458,0.003,27.687,0.004c10.405,0.001,20.81,0.003,31.215,0.004c11.181,0.001,22.362,0.003,33.543,0.005
			c11.749,0.002,23.498,0.003,35.246,0.005c11.887,0.002,23.774,0.003,35.661,0.005c11.724,0.002,23.449,0.003,35.173,0.005
			c11.26,0.002,22.519,0.003,33.779,0.005c10.371,0.001,20.742,0.003,31.112,0.004c9.265,0.001,18.529,0.002,27.793,0.004
			c7.762,0.001,15.523,0.002,23.285,0.003c5.896,0.001,11.792,0.002,17.688,0.002c3.762,0.001,7.525,0.001,11.287,0.002
			C1376.668,194.848,1377.925,194.848,1379.182,194.848z"/>
	</g>
	<g id="POLYLINE_458_">
		
			<path fill="none" stroke="#E74C3C" stroke-width="3.25" stroke-linecap="round" stroke-linejoin="round" stroke-miterlimit="10" d="
			M821.8,194.848c2.244-0.019,3.171-1.845,3.347-3.78c0.216-2.372,0.431-4.744,0.647-7.116c0.811-8.925,1.623-17.849,2.434-26.774
			c0.77-8.466,1.539-16.932,2.309-25.399c0.167-1.84,0.365-3.681,0.502-5.524c0.151-2.025-1.185-3.698-3.267-3.776
			c-0.596-0.022-1.198,0-1.794,0c-1.607,0-3.213,0-4.82,0c-2.558,0-5.115,0-7.673,0c-3.438,0-6.876,0-10.315,0
			c-4.269,0-8.538,0-12.807,0c-5.061,0-10.122,0-15.183,0c-5.783,0-11.565,0-17.348,0c-6.424,0-12.849,0-19.273,0
			c-7.027,0-14.055,0-21.082,0c-7.573,0-15.147,0-22.72,0c-8.091,0-16.181,0-24.272,0c-8.526,0-17.051,0-25.577,0
			c-8.873,0-17.746,0-26.619,0c-9.191,0-18.383,0-27.574,0c-9.485,0-18.97,0-28.455,0c-9.691,0-19.382,0-29.073,0
			c-9.806,0-19.613,0-29.419,0c-9.897,0-19.794,0-29.691,0c-9.931,0-19.861,0-29.792,0c-9.941,0-19.881,0-29.822,0
			c-9.86,0-19.72,0-29.58,0c-9.69,0-19.38,0-29.069,0c-9.496,0-18.992,0-28.487,0c-9.275,0-18.551,0-27.826,0
			c-8.966,0-17.931,0-26.897,0c-8.57,0-17.14,0-25.71,0c-8.148,0-16.297,0-24.445,0c-7.67,0-15.339,0-23.009,0
			c-7.157,0-14.315,0-21.472,0c-6.561,0-13.122,0-19.682,0c-5.888,0-11.777,0-17.665,0c-5.182,0-10.364,0-15.546,0
			c-4.432,0-8.864,0-13.297,0c-3.606,0-7.213,0-10.819,0c-2.716,0-5.431,0-8.147,0c-1.782,0-3.563,0-5.345,0
			c-0.79,0-1.582-0.02-2.372,0c-1.446,0.038-2.749,0.821-3.226,2.24c-0.423,1.256-0.014,2.939,0.102,4.216
			c0.694,7.631,1.387,15.262,2.081,22.893c0.849,9.339,1.698,18.677,2.547,28.016c0.281,3.088,0.561,6.175,0.842,9.263
			c0.118,1.303,0.023,3.057,0.766,4.196c0.918,1.407,2.311,1.491,3.762,1.491c1.375,0,2.75,0,4.125,0c2.345,0,4.69,0,7.035,0.001
			c3.259,0,6.518,0.001,9.778,0.001c4.115,0,8.23,0.001,12.344,0.001c4.929,0,9.859,0.001,14.788,0.001
			c5.672,0,11.345,0.001,17.017,0.001c6.334,0,12.667,0.001,19.001,0.001c6.954,0.001,13.908,0.001,20.862,0.002
			c7.542,0.001,15.084,0.001,22.626,0.002c8.048,0.001,16.096,0.001,24.144,0.002c8.466,0.001,16.932,0.001,25.398,0.002
			c8.851,0.001,17.702,0.001,26.553,0.002c9.178,0.001,18.355,0.001,27.533,0.002c9.478,0.001,18.955,0.001,28.433,0.002
			c9.688,0.001,19.376,0.001,29.064,0.002c9.806,0.001,19.612,0.001,29.418,0.002c9.897,0.001,19.795,0.001,29.692,0.002
			c9.963,0.001,19.926,0.001,29.89,0.002c9.937,0.001,19.874,0.001,29.81,0.002c9.818,0.001,19.637,0.001,29.455,0.002
			c9.675,0.001,19.349,0.001,29.024,0.002c9.472,0.001,18.944,0.001,28.416,0.002c9.241,0.001,18.482,0.001,27.724,0.002
			c8.919,0.001,17.838,0.001,26.757,0.002c8.51,0.001,17.019,0.001,25.529,0.002c8.072,0.001,16.144,0.001,24.216,0.002
			c7.6,0.001,15.2,0.001,22.8,0.002c7.041,0.001,14.082,0.001,21.123,0.002c6.402,0,12.805,0.001,19.207,0.001
			c5.729,0,11.459,0.001,17.188,0.001c4.998,0,9.996,0.001,14.993,0.001c4.22,0,8.44,0.001,12.661,0.001
			c3.365,0,6.731,0,10.096,0.001c2.445,0,4.889,0,7.334,0.001c1.478,0,2.956,0,4.434,0
			C820.89,194.848,821.345,194.848,821.8,194.848z"/>
	</g>
</g>
<g id="_x3C_Layer_x3E_">
</g>
</svg>
